PathFileType	4	(X/Y/Z)	C:/Users/opensim2020/Desktop/walking_exp_matlab/subject06_walking23_straight_02.trc	
DataRate	CameraRate	NumFrames	NumMarkers	Units	OrigDataRate	OrigDataStartFrame	OrigNumFrames	
100.00	100.00	4	45	mm	100.00	1291	114	
Frame#	Time	LFHD			RFHD			LBHD			RBHD			C7			T10			CLAV			STRN			RBAK			LSHO			LUPA			LELB			LFRM			LWRA			LWRB			LFIN			RSHO			RUPA			RELB			RFRM			RWRA			RWRB			RFIN			LASI			RASI			LPSI			RPSI			LTHI			LKNE			LTIB			LANK			LHEE			LTOE			RTHI			RKNE			RTIB			RANK			RHEE			RTOE			*39			*40			*41			*42			*43			*44			
		X1	Y1	Z1	X2	Y2	Z2	X3	Y3	Z3	X4	Y4	Z4	X5	Y5	Z5	X6	Y6	Z6	X7	Y7	Z7	X8	Y8	Z8	X9	Y9	Z9	X10	Y10	Z10	X11	Y11	Z11	X12	Y12	Z12	X13	Y13	Z13	X14	Y14	Z14	X15	Y15	Z15	X16	Y16	Z16	X17	Y17	Z17	X18	Y18	Z18	X19	Y19	Z19	X20	Y20	Z20	X21	Y21	Z21	X22	Y22	Z22	X23	Y23	Z23	X24	Y24	Z24	X25	Y25	Z25	X26	Y26	Z26	X27	Y27	Z27	X28	Y28	Z28	X29	Y29	Z29	X30	Y30	Z30	X31	Y31	Z31	X32	Y32	Z32	X33	Y33	Z33	X34	Y34	Z34	X35	Y35	Z35	X36	Y36	Z36	X37	Y37	Z37	X38	Y38	Z38	X39	Y39	Z39	X40	Y40	Z40	X41	Y41	Z41	X42	Y42	Z42	X43	Y43	Z43	X44	Y44	Z44	X45	Y45	Z45	

15	0.140	-896.89960	618.56952	1639.35083	-1027.13513	595.29840	1640.60388	-925.78223	750.41620	1590.39246	-1052.61304	725.64844	1596.19861	-982.37445	743.78424	1434.88672	-991.52246	782.68024	1107.08203	-980.45032	633.12708	1358.74963	-979.06348	591.85736	1187.68469	-1068.37354	815.72461	1267.61060	-820.09161	693.68744	1386.52063	-747.67413	731.44617	1189.07349	-735.83777	759.68414	1080.40613	-705.24493	768.46887	932.54071	-737.10706	731.98785	804.91949	-702.84100	793.43774	816.22626	-695.67108	771.70465	727.40796	-1140.94360	676.73364	1394.21765	-1244.11169	697.67773	1202.39258	-1266.78137	671.63800	1086.28137	-1282.93530	609.03558	986.88696	-1239.67993	495.47134	892.53552	-1286.37964	538.24622	869.39441	-1282.04907	469.80319	820.70837	-889.40509	602.78113	951.26752	-1107.01099	612.43469	955.20123	-906.36023	760.50226	970.86639	-1073.68213	761.46844	979.96503	-821.52838	593.16608	639.36426	-850.39667	524.97650	491.47980	-864.11053	524.79608	237.47452	-906.31122	501.92004	67.18999	-955.33612	535.15143	48.97212	-901.64307	357.99109	55.95151	-1149.57776	709.22900	620.04486	-1127.36462	731.33765	495.21762	-1119.20764	846.49487	249.65526	-1068.34839	909.87750	75.48257	-1024.11389	954.68323	56.17339	-1068.15210	761.91412	30.69505	-968.97815	705.50586	1686.58801															 
16	0.150	-896.73590	604.41846	1636.48560	-1026.94409	581.04694	1637.66565	-925.63245	736.24335	1587.56543	-1052.26453	711.25745	1593.27307	-982.14728	729.69958	1431.97815	-991.16467	768.79700	1104.10352	-980.26569	618.94342	1355.81616	-979.11725	577.78564	1184.76196	-1068.13208	801.77954	1264.67053	-819.81445	679.36804	1383.51501	-747.39417	719.54565	1186.69226	-735.64801	749.83594	1078.58545	-704.68121	761.58301	931.01935	-734.93610	726.09296	802.56152	-702.02991	788.92957	815.33508	-694.84808	769.47791	725.95892	-1140.69604	662.80908	1391.41809	-1244.44568	682.54498	1199.88501	-1267.50891	655.38489	1084.17761	-1283.28003	590.73334	986.10474	-1239.39319	475.56134	894.36359	-1286.28564	517.43506	870.30640	-1281.59326	448.01257	823.15509	-889.57349	588.38080	948.59650	-1107.05872	598.59723	952.37305	-905.76184	745.98022	968.05530	-1073.27283	747.84430	977.10773	-821.46405	580.39050	635.44446	-851.05347	510.71890	488.39517	-863.46320	496.11475	235.44164	-904.52722	462.76663	66.69638	-953.23694	496.09174	46.95243	-901.96484	318.36163	61.30158	-1149.16626	698.33063	617.91064	-1127.21277	722.58148	493.40060	-1118.54529	842.41431	249.79037	-1067.60376	909.19946	76.84281	-1023.25732	954.15680	58.17835	-1068.09851	761.86536	30.65730	-968.84174	691.28711	1683.73657															 
17	0.160	-896.46674	590.08069	1633.64294	-1026.67957	566.73578	1634.77295	-925.25580	722.05756	1584.79138	-1052.17834	697.19312	1590.45129	-981.74896	715.41864	1429.10352	-990.72461	754.77753	1101.10852	-979.94452	604.55225	1352.83923	-979.09906	563.56897	1181.81006	-1067.83252	787.75983	1261.72766	-819.42572	664.99115	1380.41992	-747.00385	707.55280	1184.28442	-735.36273	739.75623	1076.70020	-704.68738	754.00812	929.35834	-734.15149	721.26837	800.30017	-701.43292	783.83984	814.35107	-694.06726	766.40686	724.54205	-1140.35510	648.68573	1388.47021	-1244.57739	667.33575	1197.15186	-1268.07751	639.06464	1081.88098	-1283.57373	572.70319	985.15723	-1239.04419	455.90564	895.89294	-1286.09229	497.05521	870.90845	-1281.00391	426.64020	825.23712	-889.81622	573.61938	946.11420	-1107.18408	584.88403	949.59943	-905.19543	730.64685	965.04047	-1072.65942	734.00226	974.17090	-821.10425	567.41119	631.57440	-851.71832	495.87033	485.72894	-862.68481	468.73611	234.26210	-902.91797	426.19919	67.06722	-951.44843	458.65692	45.69087	-901.77161	281.06171	67.26424	-1148.80457	687.19958	615.88544	-1126.90039	713.20605	491.60217	-1117.84509	838.08051	250.16895	-1067.11597	908.13672	78.49779	-1022.71497	953.50549	60.76986	-1067.96631	761.80933	30.53074	-968.64398	677.02319	1680.88782															 
18	0.170	-896.10199	575.75696	1630.88879	-1026.29688	552.37177	1631.93933	-924.94830	707.60785	1581.92346	-1051.82751	682.86670	1587.64307	-981.26642	701.02277	1426.35120	-990.14294	740.54010	1098.15417	-979.61188	590.26776	1349.92212	-978.95740	549.22174	1178.91772	-1067.36877	773.68695	1258.86633	-818.88165	650.68237	1377.34302	-746.55023	695.36536	1181.87988	-735.00439	729.33966	1074.85742	-703.67706	746.59027	927.96533	-733.10815	715.23419	798.17999	-700.78131	778.11310	813.41388	-693.50024	762.66058	723.25018	-1139.94531	634.48126	1385.48730	-1244.59485	652.12103	1194.36328	-1268.49438	622.83582	1079.57141	-1283.79211	554.91595	984.07813	-1238.62488	436.71332	897.15759	-1285.81982	477.08444	871.29718	-1280.39917	405.87976	827.08575	-889.99500	558.59253	943.70569	-1107.12903	570.76062	946.94226	-904.24213	715.78314	962.17786	-1071.87036	720.07996	971.24963	-820.05103	553.89331	627.83691	-851.89539	480.39420	483.32727	-861.79358	442.67465	233.54886	-901.45093	391.90695	68.21974	-950.05109	423.33493	44.88535	-901.05634	246.57854	74.52669	-1148.51721	675.66107	613.90253	-1126.61584	703.25482	489.80902	-1117.25635	833.26654	250.80559	-1066.78882	907.07385	80.58532	-1022.31335	952.70404	63.83479	-1067.90332	761.83765	30.48133	-968.24945	662.64368	1678.05420															 
